<svg width="59" height="46" viewBox="0 0 59 43" fill="none" xmlns="http://www.w3.org/2000/svg" xmlns:xlink="http://www.w3.org/1999/xlink">
    <defs/>
    <path id="Vector" d="M58.45 14.11L29.45 -0.89C29.31 -0.97 29.16 -1 29 -1C28.84 -1 28.68 -0.97 28.54 -0.89L-0.46 14.11C-0.63 14.19 -0.76 14.32 -0.86 14.48C-0.95 14.63 -1 14.81 -1 15C-1 15.18 -0.95 15.36 -0.86 15.51C-0.76 15.67 -0.63 15.8 -0.46 15.88L13 22.85L13 34C13 37.99 19.87 41 29 41C38.12 41 45 37.99 45 34L45 22.85L51 19.75L51 25.18C50.41 25.39 49.91 25.77 49.55 26.27C49.19 26.78 49 27.38 49 28L49 42C49 42.26 49.1 42.51 49.29 42.7C49.48 42.89 49.73 43 50 43L54 43C54.26 43 54.51 42.89 54.7 42.7C54.89 42.51 55 42.26 55 42L55 28C54.99 27.38 54.8 26.77 54.44 26.27C54.08 25.77 53.58 25.39 53 25.18L53 18.71L58.45 15.88C58.62 15.8 58.75 15.67 58.85 15.51C58.94 15.36 58.99 15.18 58.99 15C58.99 14.81 58.94 14.63 58.85 14.48C58.75 14.32 58.62 14.19 58.45 14.11ZM53 41L51 41L51 28C51 27.73 51.1 27.48 51.29 27.29C51.48 27.1 51.73 27 52 27C52.26 27 52.51 27.1 52.7 27.29C52.89 27.48 53 27.73 53 28L53 41ZM43 34C43 36.36 37.01 39 29 39C20.98 39 15 36.36 15 34L15 23.88L28.54 30.88C28.68 30.95 28.83 30.99 29 30.99C29.16 30.99 29.31 30.95 29.45 30.88L43 23.88L43 34ZM51.97 16.98L29.12 14C28.86 13.97 28.6 14.04 28.38 14.2C28.17 14.36 28.04 14.6 28 14.87C27.97 15.13 28.04 15.4 28.2 15.61C28.36 15.82 28.6 15.95 28.87 15.99L48.86 18.6L43.54 21.35L29 28.87L14.45 21.35L14.45 21.35L2.17 15L29 1.12L55.82 15L51.97 16.98Z" fill="#149D9E" fill-opacity="1.000000" fill-rule="nonzero"/>
</svg>

