<svg width="80.000000" height="80.000000" viewBox="0 0 80 80" fill="none" xmlns="http://www.w3.org/2000/svg" xmlns:xlink="http://www.w3.org/1999/xlink">
    <defs>
        <clipPath id="clip182_1699">
            <rect id="pdf_3997635 5" width="80.000000" height="80.000000" fill="white" fill-opacity="0"/>
        </clipPath>
    </defs>
    <rect id="pdf_3997635 5" width="80.000000" height="80.000000" fill="#FFFFFF" fill-opacity="0"/>
    <g clip-path="url(#clip182_1699)">
        <path id="Vector" d="M13.69 51.27L11.19 51.27C7.73 51.27 4.92 48.46 4.92 45.01C4.92 42.93 6.61 41.25 8.68 41.25L13.69 41.25L13.69 51.27Z" fill="#BD4150" fill-opacity="1.000000" fill-rule="nonzero"/>
        <path id="Vector" d="M74.33 12.96L63.27 1.9C62.8 1.43 62.17 1.17 61.5 1.17L14.94 1.17C13.56 1.17 12.44 2.29 12.44 3.67L12.44 42.81L14.94 78.82L72.56 78.82C73.94 78.82 75.07 77.7 75.07 76.32L75.07 14.73C75.07 14.07 74.8 13.43 74.33 12.96Z" fill="#ECEAEC" fill-opacity="1.000000" fill-rule="nonzero"/>
        <path id="Vector" d="M75.07 14.73C75.07 14.07 74.8 13.43 74.33 12.96L63.27 1.9C62.8 1.43 62.17 1.17 61.5 1.17L61.29 1.17L61.29 13.69C61.29 14.38 61.85 14.94 62.54 14.94L75.07 14.94L75.07 14.73Z" fill="#DAD8DB" fill-opacity="1.000000" fill-rule="nonzero"/>
        <path id="Vector" d="M16.2 72.56L16.2 1.17L14.94 1.17C13.56 1.17 12.44 2.29 12.44 3.67L12.44 76.32C12.44 77.7 13.56 78.82 14.94 78.82L72.56 78.82C73.94 78.82 75.07 77.7 75.07 76.32L75.07 75.07L18.7 75.07C17.32 75.07 16.2 73.94 16.2 72.56Z" fill="#DAD8DB" fill-opacity="1.000000" fill-rule="nonzero"/>
        <path id="Vector" d="M47.51 48.76L8.68 48.76C6.61 48.76 4.92 47.08 4.92 45L4.92 67.55C4.92 69.63 6.61 71.31 8.68 71.31L47.51 71.31C48.89 71.31 50.02 70.19 50.02 68.8L50.02 51.27C50.02 49.88 48.89 48.76 47.51 48.76Z" fill="#E15F78" fill-opacity="1.000000" fill-rule="nonzero"/>
        <path id="Vector" d="M8.68 71.31L47.51 71.31C48.89 71.31 50.02 70.19 50.02 68.8L50.02 67.55L11.19 67.55C9.81 67.55 8.68 66.43 8.68 65.05L8.68 48.76C6.61 48.76 4.92 47.08 4.92 45L4.92 67.55C4.92 69.63 6.61 71.31 8.68 71.31Z" fill="#DB4655" fill-opacity="1.000000" fill-rule="nonzero"/>
        <path id="Vector" d="M75.16 12.13L64.1 1.07C63.41 0.38 62.48 0 61.5 0L14.94 0C12.92 0 11.27 1.64 11.27 3.67L11.27 40.08L8.68 40.08C5.96 40.08 3.75 42.29 3.75 45.01L3.75 67.55C3.75 70.27 5.96 72.48 8.68 72.48L47.51 72.48C49.54 72.48 51.19 70.83 51.19 68.8L51.19 51.27C51.19 49.24 49.54 47.59 47.51 47.59L8.68 47.59C7.26 47.59 6.1 46.43 6.1 45.01C6.1 43.58 7.26 42.42 8.68 42.42L11.27 42.42L11.27 43.75C11.27 44.4 11.79 44.93 12.44 44.93C13.09 44.93 13.61 44.4 13.61 43.75L13.61 3.67C13.61 2.94 14.21 2.34 14.94 2.34L60.12 2.34L60.12 13.69C60.12 15.03 61.2 16.12 62.54 16.12L73.89 16.12L73.89 76.32C73.89 77.05 73.3 77.65 72.56 77.65L14.94 77.65C14.21 77.65 13.61 77.05 13.61 76.32C13.61 75.67 13.09 75.15 12.44 75.15C11.79 75.15 11.27 75.67 11.27 76.32C11.27 78.35 12.92 80 14.94 80L72.56 80C74.59 80 76.24 78.35 76.24 76.32L76.24 14.73C76.24 13.75 75.86 12.82 75.16 12.13ZM8.68 49.93L47.51 49.93C48.25 49.93 48.84 50.53 48.84 51.27L48.84 68.8C48.84 69.54 48.25 70.14 47.51 70.14L8.68 70.14C7.26 70.14 6.1 68.98 6.1 67.55L6.1 49.2C6.85 49.67 7.73 49.93 8.68 49.93ZM62.46 13.69L62.46 2.74L73.49 13.77L62.54 13.77C62.5 13.77 62.46 13.74 62.46 13.69Z" fill="#000000" fill-opacity="1.000000" fill-rule="nonzero"/>
        <path id="Vector" d="M36.96 66.18C37.61 66.18 38.13 65.66 38.13 65.01L38.13 61.11L40.67 61.11C41.32 61.11 41.84 60.59 41.84 59.94C41.84 59.29 41.32 58.77 40.67 58.77L38.13 58.77L38.13 56.23L40.99 56.23C41.64 56.23 42.16 55.71 42.16 55.06C42.16 54.41 41.64 53.89 40.99 53.89L36.96 53.89C36.31 53.89 35.79 54.41 35.79 55.06L35.79 65.01C35.79 65.66 36.31 66.18 36.96 66.18Z" fill="#000000" fill-opacity="1.000000" fill-rule="nonzero"/>
        <path id="Vector" d="M24.64 65.73C24.86 65.95 25.16 66.07 25.47 66.07L25.47 66.07C25.56 66.07 27.52 66.06 28.3 66.05C31.2 66 33.3 63.47 33.3 60.04C33.3 56.43 31.25 54 28.2 54L25.45 54C25.14 54 24.84 54.13 24.62 54.35C24.4 54.57 24.28 54.86 24.28 55.18L24.28 55.18L24.28 55.18L24.28 64.74C24.28 64.82 24.28 64.9 24.3 64.97C24.32 65.26 24.44 65.53 24.64 65.73ZM28.2 56.35C30.23 56.35 30.96 58.25 30.96 60.04C30.96 62.54 29.6 63.68 28.26 63.7C27.89 63.71 27.22 63.72 26.64 63.72C26.63 62.57 26.62 57.54 26.62 56.35L28.2 56.35Z" fill="#000000" fill-opacity="1.000000" fill-rule="nonzero"/>
        <path id="Vector" d="M14.91 66.22C15.56 66.22 16.08 65.69 16.08 65.05L16.08 61.86C16.66 61.86 17.32 61.85 17.7 61.85C19.93 61.85 21.75 60.06 21.75 57.85C21.75 55.65 19.93 53.85 17.7 53.85L14.91 53.85C14.6 53.85 14.3 53.98 14.08 54.2C13.86 54.42 13.74 54.72 13.74 55.03L13.74 65.05C13.74 65.69 14.26 66.22 14.91 66.22ZM17.7 56.2C18.63 56.2 19.41 56.96 19.41 57.85C19.41 58.75 18.63 59.51 17.7 59.51C17.33 59.51 16.67 59.51 16.09 59.52C16.09 58.92 16.08 56.82 16.08 56.2L17.7 56.2L17.7 56.2Z" fill="#000000" fill-opacity="1.000000" fill-rule="nonzero"/>
        <path id="Vector" d="M36.86 33.97C33.98 34.88 31.03 36.14 29.45 37.77C28.15 39.11 27.91 40.67 28.8 42.04C29.41 42.98 30.24 43.46 31.17 43.46C31.53 43.46 31.9 43.39 32.28 43.25C33.66 42.72 35.15 41.22 36.83 38.67C37.37 37.84 37.92 36.92 38.47 35.93C38.67 35.87 38.87 35.82 39.08 35.76C42.39 34.83 46.13 34.16 49.41 33.88C51.41 35.82 53.48 37.32 55.25 37.74C57.19 38.19 58.73 37.3 59.36 35.36C59.75 34.19 59.3 33.08 58.18 32.4C57.02 31.7 55 31.36 52.19 31.39C51.59 31.4 50.96 31.42 50.3 31.47C49.04 30.16 47.72 28.61 46.46 26.89C45.48 25.55 44.6 24.22 43.86 22.95C43.94 22.68 44.02 22.4 44.09 22.13C44.89 19.16 45.18 16.89 44.94 15.37C44.6 13.18 43.18 12.87 42.59 12.84C40.58 12.73 39.22 13.75 38.96 15.56C38.76 17 39.24 18.98 40.4 21.44C40.68 22.02 40.99 22.63 41.33 23.24C41.2 23.65 41.06 24.07 40.91 24.51C39.83 27.71 38.37 31.11 36.86 33.97ZM31.23 41.11C31.15 41.12 31.01 41.14 30.77 40.77C30.57 40.47 30.56 40.24 30.73 39.93C31.12 39.2 32.46 38.17 35.04 37.12C33.24 39.91 31.89 41.03 31.23 41.11ZM57.15 34.55C57.15 34.57 57.15 34.59 57.13 34.63C56.84 35.52 56.45 35.61 55.78 35.45C54.96 35.26 53.93 34.66 52.77 33.74C55.9 33.76 56.99 34.33 57.15 34.55ZM41.29 15.89C41.33 15.55 41.39 15.18 42.28 15.18C42.33 15.18 42.39 15.18 42.46 15.18C42.72 15.51 42.86 16.95 42.24 19.82C41.52 18.15 41.16 16.76 41.29 15.89ZM42.92 25.89C43.43 26.68 43.98 27.48 44.57 28.28C45.41 29.42 46.36 30.61 47.37 31.74C46.21 31.88 45 32.06 43.81 32.28C42.99 32.42 41.58 32.7 39.92 33.12C40.29 32.35 40.65 31.56 41.01 30.75C41.71 29.14 42.36 27.49 42.92 25.89Z" fill="#000000" fill-opacity="1.000000" fill-rule="nonzero"/>
    </g>
</svg>
