<svg width="28.000000" height="30.000000" viewBox="0 0 29 30" fill="none" xmlns="http://www.w3.org/2000/svg" xmlns:xlink="http://www.w3.org/1999/xlink">
	<defs/>
	<path id="Vector" d="M27.04 21.58C25.87 20.32 24.7 19.08 23.56 17.87C22.94 17.22 22.22 16.88 21.46 16.88C20.7 16.88 19.98 17.22 19.37 17.87L19.21 18.03C18.59 18.69 17.95 19.37 17.33 20.04C17.2 19.98 17.08 19.91 16.95 19.84C16.67 19.69 16.4 19.55 16.16 19.39C14.3 18.15 12.59 16.49 10.93 14.31C10.13 13.26 9.57 12.32 9.18 11.37C9.73 10.81 10.26 10.23 10.79 9.66C10.92 9.52 11.06 9.37 11.19 9.23C12.48 7.85 12.48 6.06 11.19 4.67C10.8 4.25 10.39 3.82 10 3.41C9.83 3.22 9.66 3.04 9.48 2.85C9.3 2.66 9.12 2.47 8.93 2.27C8.54 1.84 8.13 1.41 7.72 0.98C7.1 0.33 6.37 0 5.62 0C4.87 0 4.14 0.33 3.53 0.98C3.23 1.3 2.93 1.61 2.65 1.92C2.23 2.37 1.8 2.83 1.36 3.27C0.55 4.09 0.1 5.13 0.02 6.36C-0.12 8.28 0.39 10.03 0.84 11.34C1.87 14.29 3.44 17.09 5.65 19.89C8.4 23.38 11.72 26.14 15.5 28.11C17.58 29.18 19.37 29.73 21.11 29.84C21.23 29.84 21.36 29.85 21.48 29.85C22.95 29.85 24.16 29.29 25.07 28.21C25.47 27.74 25.89 27.3 26.33 26.84C26.56 26.61 26.79 26.37 27.02 26.12C28.32 24.73 28.32 22.96 27.04 21.58ZM25.92 24.95C25.7 25.18 25.48 25.42 25.26 25.65C24.81 26.11 24.35 26.6 23.92 27.11C23.25 27.91 22.39 28.25 21.2 28.19C19.67 28.09 18.08 27.6 16.19 26.62C12.61 24.76 9.46 22.14 6.85 18.84C4.76 16.18 3.27 13.55 2.31 10.77C1.71 9.07 1.49 7.75 1.58 6.5C1.64 5.7 1.92 5.04 2.45 4.51C2.89 4.03 3.33 3.56 3.76 3.1C4.04 2.8 4.33 2.48 4.62 2.18C4.84 1.94 5.19 1.67 5.62 1.67C6.05 1.67 6.4 1.94 6.63 2.18C7.03 2.6 7.44 3.03 7.82 3.45C8.01 3.65 8.19 3.85 8.37 4.04C8.55 4.22 8.72 4.41 8.89 4.59C9.28 5.01 9.68 5.43 10.07 5.85C10.77 6.6 10.77 7.32 10.08 8.06C9.95 8.2 9.81 8.35 9.67 8.49C9.11 9.1 8.53 9.73 7.94 10.32C7.66 10.62 7.37 11.13 7.66 11.85C8.11 13.01 8.76 14.13 9.71 15.37C11.47 17.68 13.31 19.46 15.32 20.81C15.63 21.02 15.95 21.18 16.25 21.34C16.44 21.44 16.61 21.53 16.77 21.63C16.98 21.75 17.19 21.81 17.4 21.81C17.73 21.81 18.04 21.65 18.31 21.36C18.96 20.64 19.64 19.92 20.3 19.22L20.45 19.06C20.67 18.82 21.03 18.55 21.45 18.55C21.87 18.55 22.22 18.82 22.45 19.06C23.58 20.26 24.75 21.5 25.92 22.76C26.6 23.47 26.59 24.23 25.92 24.95Z" fill="#FFFFFF" fill-opacity="1.000000" fill-rule="nonzero"/>
</svg>
