<svg width="16" height="9" viewBox="0 0 14.0121 7.99007" fill="none" xmlns="http://www.w3.org/2000/svg" xmlns:xlink="http://www.w3.org/1999/xlink">
	<defs/>
	<path id="arrow" d="M7.00607 7.99007C6.87696 7.99021 6.7491 7.96484 6.62983 7.91541C6.51056 7.86599 6.40223 7.79348 6.31107 7.70206L0.277068 1.66707C0.0975056 1.48177 -0.00199862 1.23329 3.04637e-05 0.975266C0.00205954 0.717243 0.105459 0.470366 0.287914 0.28791C0.470369 0.105455 0.717248 0.00205946 0.97527 3.05176e-05C1.23329 -0.00199842 1.48177 0.097506 1.66707 0.277069L7.00607 5.61707L12.3451 0.277069C12.5304 0.097506 12.7788 -0.00199842 13.0369 3.05176e-05C13.2949 0.00205946 13.5418 0.105455 13.7242 0.28791C13.9067 0.470366 14.0101 0.717243 14.0121 0.975266C14.0141 1.23329 13.9146 1.48177 13.7351 1.66707L7.70107 7.70206C7.6099 7.79348 7.50158 7.86599 7.38231 7.91541C7.26303 7.96484 7.13517 7.99021 7.00607 7.99007Z" fill="#959595" fill-opacity="1.000000" fill-rule="nonzero"/>
</svg>
