<svg width="25.000000" height="25.000000" viewBox="0 0 25 25" fill="none" xmlns="http://www.w3.org/2000/svg" xmlns:xlink="http://www.w3.org/1999/xlink">
	<desc>
			Created with Pixso.
	</desc>
	<defs>
		<clipPath id="clip1_103">
			<rect id="location_2838912 1" width="25.000000" height="25.000000" fill="white" fill-opacity="0"/>
		</clipPath>
	</defs>
	<rect id="location_2838912 1" width="25.000000" height="25.000000" fill="#FFFFFF" fill-opacity="0"/>
	<g clip-path="url(#clip1_103)">
		<path id="Vector" d="M11.89 24.67C12.02 24.87 12.25 25 12.5 25C12.74 25 12.97 24.87 13.1 24.67C14.84 22.07 17.39 18.86 19.17 15.59C20.59 12.98 21.28 10.75 21.28 8.78C21.28 3.94 17.34 0 12.5 0C7.65 0 3.71 3.94 3.71 8.78C3.71 10.75 4.4 12.98 5.82 15.59C7.6 18.86 10.16 22.07 11.89 24.67ZM12.5 1.46C16.53 1.46 19.82 4.75 19.82 8.78C19.82 10.5 19.19 12.5 17.88 14.89C16.35 17.71 14.16 20.56 12.5 22.96C10.83 20.56 8.64 17.71 7.11 14.89C5.8 12.5 5.17 10.5 5.17 8.78C5.17 4.75 8.46 1.46 12.5 1.46Z" fill="#FFFFFF" fill-opacity="1.000000" fill-rule="nonzero"/>
		<path id="Vector" d="M12.5 13.18C14.92 13.18 16.89 11.21 16.89 8.78C16.89 6.36 14.92 4.39 12.5 4.39C10.07 4.39 8.1 6.36 8.1 8.78C8.1 11.21 10.07 13.18 12.5 13.18ZM12.5 5.85C14.11 5.85 15.42 7.17 15.42 8.78C15.42 10.4 14.11 11.71 12.5 11.71C10.88 11.71 9.57 10.4 9.57 8.78C9.57 7.17 10.88 5.85 12.5 5.85Z" fill="#FFFFFF" fill-opacity="1.000000" fill-rule="nonzero"/>
	</g>
</svg>
