<svg width="64" height="64" viewBox="0 0 64 64" fill="none" xmlns="http://www.w3.org/2000/svg">
<path d="M61.4591 25.112L32.4591 10.112C32.3172 10.0387 32.1598 10.0004 32.0001 10.0004C31.8404 10.0004 31.683 10.0387 31.5411 10.112L2.54113 25.112C2.37836 25.1963 2.24188 25.3237 2.14662 25.4803C2.05136 25.6369 2.00098 25.8167 2.00098 26C2.00098 26.1833 2.05136 26.3631 2.14662 26.5197C2.24188 26.6763 2.37836 26.8037 2.54113 26.888L16.0001 33.85V45C16.0001 48.991 22.8781 52 32.0001 52C41.1221 52 48.0001 48.991 48.0001 45V33.85L54.0001 30.75V36.188C53.4179 36.3938 52.9133 36.7744 52.5554 37.2777C52.1974 37.7809 52.0035 38.3824 52.0001 39V53C52.0001 53.2652 52.1055 53.5196 52.293 53.7071C52.4806 53.8946 52.7349 54 53.0001 54H57.0001C57.2654 54 57.5197 53.8946 57.7072 53.7071C57.8948 53.5196 58.0001 53.2652 58.0001 53V39C57.9976 38.3817 57.8041 37.7794 57.446 37.2753C57.088 36.7712 56.583 36.3901 56.0001 36.184V29.712L61.4591 26.888C61.6219 26.8037 61.7584 26.6763 61.8536 26.5197C61.9489 26.3631 61.9993 26.1833 61.9993 26C61.9993 25.8167 61.9489 25.6369 61.8536 25.4803C61.7584 25.3237 61.6219 25.1963 61.4591 25.112ZM56.0001 52H54.0001V39C54.0001 38.7348 54.1055 38.4804 54.293 38.2929C54.4806 38.1053 54.7349 38 55.0001 38C55.2654 38 55.5197 38.1053 55.7072 38.2929C55.8948 38.4804 56.0001 38.7348 56.0001 39V52ZM46.0001 45C46.0001 47.36 40.0131 50 32.0001 50C23.9871 50 18.0001 47.36 18.0001 45V34.885L31.5411 41.885C31.6829 41.9589 31.8403 41.9974 32.0001 41.9974C32.16 41.9974 32.3174 41.9589 32.4591 41.885L46.0001 34.885V45ZM54.9771 27.989L32.1291 25.008C31.866 24.9738 31.6001 25.0455 31.3899 25.2073C31.1797 25.3692 31.0423 25.6079 31.0081 25.871C30.9739 26.1341 31.0456 26.4 31.2075 26.6102C31.3693 26.8205 31.608 26.9578 31.8711 26.992L51.8631 29.6L46.5441 32.352L32.0001 39.874L17.4591 32.352H17.4531L5.17713 26L32.0001 12.126L58.8221 26L54.9771 27.989Z" fill="#149D9E"/>
</svg>
