<svg width="38.000000" height="39.000000" viewBox="0 0 38 39" fill="none" xmlns="http://www.w3.org/2000/svg" xmlns:xlink="http://www.w3.org/1999/xlink">
    <defs>
        <clipPath id="clip24_606">
            <rect id="telegram_3536661 1" width="38.000000" height="39.000000" fill="white" fill-opacity="0"/>
        </clipPath>
    </defs>
    <rect id="telegram_3536661 1" width="38.000000" height="39.000000" fill="#FFFFFF" fill-opacity="0"/>
    <g clip-path="url(#clip24_606)">
        <path id="background" d="M5.18 0L32.81 0C35.68 0 38 2.38 38 5.31L38 33.68C38 36.61 35.68 39 32.81 39L5.18 39C2.32 39 0 36.61 0 33.68L0 5.31C0 2.38 2.32 0 5.18 0Z" fill="#1C8ADB" fill-opacity="1.000000" fill-rule="evenodd"/>
        <path id="icon" d="M29.35 10.08L28.95 10.22L7.63 18.11C7.47 18.16 7.34 18.26 7.25 18.39C7.16 18.52 7.12 18.68 7.12 18.84C7.13 19.01 7.19 19.16 7.29 19.29C7.39 19.41 7.53 19.49 7.69 19.53L13.21 21.08L14.24 24.18L15.27 27.28C15.33 27.44 15.42 27.57 15.54 27.68C15.67 27.78 15.81 27.86 15.97 27.89C16.12 27.93 16.28 27.92 16.44 27.88C16.59 27.84 16.73 27.76 16.85 27.65L19.7 24.88L25.3 28.78C25.99 29.26 26.96 28.9 27.14 28.11L30.85 11.29C31.03 10.46 30.17 9.77 29.35 10.08ZM26.62 13.81L16.99 21.89L16.53 22.28C16.43 22.36 16.37 22.48 16.35 22.6L16.25 23.46L15.97 25.88C15.97 25.91 15.97 25.94 15.95 25.96C15.93 25.98 15.9 26 15.87 26C15.84 26 15.82 25.99 15.79 25.97C15.77 25.95 15.76 25.93 15.76 25.9L14.97 23.48L14.16 21.01C14.13 20.9 14.13 20.78 14.18 20.67C14.22 20.57 14.3 20.48 14.4 20.42L24.42 14.52L26.31 13.41C26.58 13.25 26.86 13.61 26.62 13.81Z" fill="#FFFFFF" fill-opacity="1.000000" fill-rule="nonzero"/>
    </g>
</svg>
