<svg width="39.000000" height="39.000000" viewBox="0 0 39 39" fill="none" xmlns="http://www.w3.org/2000/svg" xmlns:xlink="http://www.w3.org/1999/xlink">
    <defs>
        <clipPath id="clip24_602">
            <rect id="vk_5968835 1" width="39.000000" height="39.000000" fill="white" fill-opacity="0"/>
        </clipPath>
    </defs>
    <rect id="vk_5968835 1" width="39.000000" height="39.000000" fill="#FFFFFF" fill-opacity="0"/>
    <g clip-path="url(#clip24_602)">
        <path id="Vector" d="M0 18.68C0 9.87 0 5.47 2.73 2.73C5.47 0 9.87 0 18.68 0L20.31 0C29.12 0 33.52 0 36.26 2.73C39 5.47 39 9.87 39 18.68L39 20.31C39 29.12 39 33.52 36.26 36.26C33.52 39 29.12 39 20.31 39L18.68 39C9.87 39 5.47 39 2.73 36.26C0 33.52 0 29.12 0 20.31L0 18.68Z" fill="#2787F5" fill-opacity="1.000000" fill-rule="nonzero"/>
        <path id="Vector" d="M10.56 12.18L7.71 12.18C6.9 12.18 6.74 12.56 6.74 12.99C6.74 13.74 7.7 17.48 11.23 22.42C13.58 25.79 16.89 27.62 19.9 27.62C21.71 27.62 21.94 27.21 21.94 26.51L21.94 23.96C21.94 23.15 22.11 22.99 22.68 22.99C23.1 22.99 23.82 23.2 25.51 24.83C27.44 26.75 27.76 27.62 28.84 27.62L31.69 27.62C32.5 27.62 32.91 27.21 32.67 26.41C32.42 25.61 31.5 24.45 30.27 23.08C29.61 22.3 28.62 21.45 28.31 21.03C27.89 20.49 28.01 20.25 28.31 19.77C28.31 19.77 31.78 14.88 32.14 13.23C32.32 12.63 32.14 12.18 31.28 12.18L28.44 12.18C27.71 12.18 27.38 12.56 27.2 12.99C27.2 12.99 25.75 16.51 23.7 18.8C23.04 19.46 22.74 19.68 22.38 19.68C22.2 19.68 21.94 19.46 21.94 18.86L21.94 13.23C21.94 12.5 21.73 12.18 21.12 12.18L16.65 12.18C16.2 12.18 15.93 12.52 15.93 12.84C15.93 13.52 16.95 13.68 17.06 15.61L17.06 19.8C17.06 20.71 16.89 20.88 16.53 20.88C15.57 20.88 13.22 17.34 11.83 13.29C11.56 12.5 11.29 12.18 10.56 12.18Z" fill="#FFFFFF" fill-opacity="1.000000" fill-rule="evenodd"/>
    </g>
</svg>
